P2
# created by Yuvraj Subedi
115 92
255
0 5 2 19 5 0 4 11 2 0 1 0 0 15 2 8 1 13 5 0 6 0 10 2 14 0 5 3 0 9 19 7 7 4 0 0 0 23 0 14 2 20 0 1 0 0 8 0 14 4 0 6 16 2 15 8 6 0 22 0 9 0 8 13 0 16 6 0 11 1 0 6 7 0 15 15 4 0 6 6 6 3 3 0 0 7 0 8 6 15 0 7 10 0 0 10 0 25 0 2 22 18 6 0 1 0 2 4 1 10 0 19 1 5 0 
29 127 73 162 180 214 34 5 55 29 22 143 45 103 152 212 194 148 111 174 248 243 197 212 31 153 220 215 121 209 236 232 151 123 92 205 187 114 107 121 136 82 109 138 104 163 169 197 243 254 201 171 124 99 184 166 237 185 131 198 126 229 198 193 109 145 241 230 66 176 147 226 216 239 146 252 167 165 219 140 230 238 105 99 157 222 30 111 168 107 106 151 140 151 154 173 165 142 195 115 233 233 225 127 104 193 159 221 255 148 131 12 118 82 44 
9 150 50 155 215 255 95 29 34 51 16 164 27 175 179 189 251 143 67 116 242 242 103 223 77 231 152 92 81 108 255 171 119 227 85 233 189 114 90 75 111 93 130 98 97 154 204 218 236 236 204 203 198 196 159 229 163 113 117 100 109 234 170 242 111 205 113 202 143 223 63 238 147 236 139 224 147 109 128 222 218 244 178 106 240 210 157 94 90 151 166 112 95 148 127 154 192 143 80 121 207 239 183 126 173 113 175 180 158 118 116 61 131 45 1 
119 73 169 210 81 72 141 45 212 157 134 208 83 99 82 187 196 241 183 198 236 171 137 168 192 246 240 167 91 236 198 239 209 196 88 79 150 105 22 111 76 150 86 76 144 136 208 178 168 195 163 151 158 233 62 84 203 80 160 90 100 177 119 170 215 173 149 178 199 131 102 226 151 128 167 140 76 236 179 121 100 250 224 222 247 195 203 215 222 78 90 116 81 123 128 86 157 154 89 75 223 237 139 158 112 121 84 123 92 218 192 78 16 72 187 
157 19 34 135 180 163 187 90 190 205 101 211 243 234 145 185 100 249 235 242 218 66 32 72 136 241 167 248 192 84 231 250 249 239 208 59 110 128 58 183 105 101 92 97 127 159 180 219 223 179 118 154 181 63 35 44 68 61 150 197 118 88 151 144 100 138 162 218 168 172 182 105 123 180 230 191 46 20 127 252 128 126 245 209 234 135 208 237 170 102 159 87 186 80 128 134 218 125 87 111 148 105 71 155 192 135 153 35 130 184 243 65 48 240 4 
203 37 14 137 139 210 103 148 224 242 168 70 94 147 196 235 79 235 252 241 97 216 155 21 82 242 135 223 245 83 189 249 193 161 231 80 170 152 59 147 197 96 148 109 113 179 194 142 151 185 132 67 41 45 38 106 15 103 92 194 145 137 166 223 124 176 207 183 225 141 220 153 153 133 222 116 59 216 193 236 230 170 155 205 177 152 200 192 168 192 108 154 234 205 224 183 250 147 99 110 227 210 98 98 227 124 252 99 123 154 192 93 50 116 0 
111 143 56 24 184 151 86 86 42 63 146 60 67 110 151 146 85 220 243 206 43 214 245 239 204 217 235 188 230 210 232 153 152 237 230 108 71 69 55 67 139 122 95 125 120 89 92 155 155 200 81 81 74 128 92 64 135 58 129 149 140 179 144 195 154 100 245 141 238 163 166 155 92 126 96 175 198 186 172 235 240 243 87 123 134 204 113 246 149 126 182 230 239 193 229 141 206 172 188 204 250 224 251 135 253 205 106 195 195 213 159 94 56 140 20 
79 154 103 10 109 141 104 106 129 100 107 109 107 143 35 76 60 129 181 210 193 238 230 245 192 210 243 237 232 171 138 105 206 241 149 124 196 87 103 93 117 138 66 149 87 95 153 160 176 195 84 96 97 166 36 69 189 147 201 125 75 165 119 240 198 185 218 232 181 230 236 157 149 145 165 204 154 134 144 197 103 200 216 99 160 33 142 244 130 198 195 231 85 128 94 199 139 202 205 230 67 211 159 206 144 247 240 255 182 222 100 20 206 233 1 
105 110 80 23 64 67 52 74 74 91 143 100 100 89 32 57 62 137 118 127 174 247 255 230 145 163 247 243 255 233 17 70 228 237 179 136 220 234 177 131 186 135 71 89 112 166 144 101 163 219 94 148 131 23 164 156 158 121 141 168 135 87 41 155 174 238 199 243 192 240 240 211 164 116 171 156 197 169 80 142 121 207 245 204 139 102 117 153 81 147 226 241 155 206 107 157 200 135 180 144 112 175 228 183 185 174 206 222 250 241 122 11 159 198 0 
118 97 166 84 13 7 187 192 115 33 91 206 200 88 154 138 41 86 216 106 149 228 242 251 171 201 245 107 227 210 78 110 224 233 255 244 247 235 236 66 230 185 144 148 137 187 248 88 115 139 126 124 149 107 239 235 221 221 224 172 201 243 173 87 106 81 182 232 215 238 222 191 196 128 201 230 224 193 208 131 239 242 224 168 59 171 87 132 44 218 237 217 243 226 199 129 105 205 126 144 206 204 196 229 136 112 172 37 50 133 29 98 192 252 1 
135 136 119 162 70 32 123 131 130 218 150 175 221 43 127 85 88 125 182 155 134 203 248 243 229 221 246 123 215 244 147 245 149 250 153 207 233 207 147 93 119 158 201 95 171 95 49 68 120 158 166 190 255 215 226 218 246 222 231 173 220 197 126 90 164 71 48 205 235 235 248 225 199 202 220 222 191 211 228 201 240 249 214 138 79 40 43 58 134 161 192 245 236 244 192 213 179 154 125 69 30 46 140 235 255 160 71 34 61 68 9 121 184 205 8 
217 91 85 211 83 4 168 226 235 153 164 224 205 62 109 113 61 106 232 144 185 240 226 241 238 231 241 179 217 240 219 236 243 253 193 225 201 149 34 157 73 113 121 153 231 219 153 95 87 168 136 194 252 250 255 215 242 250 244 230 194 237 180 168 194 134 102 126 238 214 240 217 223 129 219 169 233 173 220 190 201 239 190 174 84 68 98 95 160 14 47 206 210 193 242 232 218 151 138 53 60 35 91 135 236 177 29 68 21 51 4 84 241 228 7 
232 151 203 91 131 159 7 192 127 241 122 180 217 115 233 176 95 200 122 211 217 246 234 209 227 254 253 241 236 252 237 235 248 158 219 90 151 223 133 61 153 95 169 226 233 242 181 107 79 85 111 248 217 255 244 252 234 187 116 216 201 88 220 187 246 219 51 226 255 168 188 224 251 205 214 255 224 185 186 162 177 176 168 178 114 107 137 97 70 124 177 62 77 137 195 229 152 142 60 143 25 58 172 103 13 221 158 100 49 15 35 111 140 219 6 
128 83 112 149 104 210 51 71 87 149 140 235 163 221 199 208 110 177 174 201 221 230 216 248 238 246 236 243 255 244 237 250 197 183 78 245 248 125 160 160 95 173 200 100 187 230 215 118 138 112 220 123 204 196 202 210 82 67 195 185 88 174 224 226 227 222 162 229 246 183 157 160 192 208 120 193 211 134 104 167 236 204 105 223 35 120 74 57 85 60 99 232 150 32 7 5 5 27 115 152 215 120 10 166 182 0 19 29 43 0 3 87 228 160 2 
117 97 182 123 173 176 155 0 120 156 62 166 154 156 172 231 119 131 178 86 203 212 242 240 246 226 230 241 240 240 249 237 241 147 183 240 247 190 224 150 142 234 152 114 167 244 154 82 211 124 208 153 219 65 144 245 228 58 125 224 218 128 160 111 206 238 173 230 225 200 211 175 171 172 171 181 164 161 91 230 196 172 166 90 28 105 92 82 81 97 95 135 115 144 157 167 147 8 11 38 60 27 61 33 2 36 29 9 15 37 16 78 243 153 0 
126 88 128 158 103 112 104 74 14 99 146 140 146 113 154 194 243 170 184 221 91 117 222 249 234 223 244 241 241 246 239 246 241 233 249 243 236 248 214 73 105 113 184 173 198 67 87 118 106 89 76 108 172 87 74 124 90 133 107 203 237 73 109 154 231 215 234 247 204 123 246 245 239 201 169 238 147 104 196 108 80 135 240 172 49 62 73 108 97 25 74 90 243 225 180 177 216 148 65 13 29 14 8 21 35 3 65 204 128 251 95 22 186 197 7 
162 163 186 71 211 158 103 138 130 105 145 91 164 218 208 237 168 183 195 181 125 156 136 170 230 231 234 234 243 251 245 236 241 234 230 227 246 218 126 97 154 107 122 214 160 239 196 101 100 161 74 91 54 58 87 199 119 142 150 175 137 122 170 206 180 231 243 250 210 187 202 167 186 229 211 211 182 84 95 232 194 213 193 107 101 103 54 42 29 88 146 146 102 72 8 58 38 31 8 9 18 28 12 33 10 242 236 235 251 255 5 2 239 125 1 
100 216 226 153 206 202 125 169 47 144 127 135 186 224 255 254 192 230 229 205 120 190 218 142 140 252 190 222 235 227 241 244 236 246 239 238 223 222 156 165 113 111 66 204 228 211 131 100 231 199 42 96 85 206 166 112 187 229 62 91 58 128 103 122 232 215 223 245 219 226 182 114 188 180 244 142 189 87 58 246 224 203 187 82 79 58 60 66 85 146 232 66 4 14 15 5 22 4 42 92 134 143 54 0 53 242 228 255 225 230 8 26 161 148 8 
161 144 79 111 149 160 99 140 26 156 159 168 175 227 225 245 243 189 210 213 228 225 115 192 172 117 228 153 196 220 241 237 240 235 248 238 230 232 238 188 110 102 156 136 189 175 95 193 55 105 72 116 136 118 69 154 123 153 121 107 113 116 186 89 107 87 130 223 112 167 174 137 166 99 65 40 155 241 116 124 234 248 139 35 203 202 41 142 136 13 14 32 40 41 232 223 87 196 191 212 87 73 9 85 226 244 234 249 242 227 2 7 136 187 10 
137 186 130 147 82 104 178 148 162 25 177 195 164 168 240 194 240 215 231 170 187 221 206 160 177 131 193 96 150 211 165 178 205 247 250 242 235 237 237 181 151 112 109 124 130 226 213 209 230 148 46 128 147 66 148 177 136 131 100 97 145 100 93 153 86 192 184 209 164 131 155 224 243 70 122 123 211 159 169 173 213 61 151 187 48 199 80 19 5 162 146 85 200 161 215 206 162 130 116 120 139 45 3 245 228 206 248 232 226 242 60 10 48 61 9 
138 169 153 94 140 94 151 150 161 33 129 138 102 183 204 202 222 241 244 206 212 166 232 140 170 176 117 130 180 146 227 195 244 227 235 232 245 238 235 177 180 162 208 121 207 229 223 198 149 94 141 38 77 64 115 104 121 89 94 128 175 119 173 107 126 145 109 173 114 162 201 134 197 163 184 124 204 114 180 207 255 48 201 255 164 45 7 36 73 128 165 73 243 143 165 193 154 117 135 173 154 48 24 192 148 214 255 239 253 240 22 24 7 28 0 
162 117 79 97 169 166 43 146 130 96 44 180 143 156 166 198 237 250 237 171 63 193 144 212 210 190 247 202 84 116 125 97 187 218 255 246 243 237 255 246 243 221 160 227 222 152 192 163 107 115 173 132 121 59 153 167 84 75 90 64 81 121 108 88 125 128 103 69 66 214 230 192 200 206 169 75 154 122 216 103 171 190 142 81 1 9 77 181 106 191 203 185 241 150 47 93 128 121 178 152 65 9 116 160 220 218 234 247 239 189 2 13 18 28 0 
123 162 143 63 145 162 147 252 235 227 202 30 181 90 239 159 204 209 236 154 158 143 117 237 176 157 199 181 154 147 159 211 218 185 201 238 232 132 144 218 238 208 233 136 152 154 131 179 136 140 131 74 58 88 75 96 144 122 83 92 109 102 148 107 183 211 125 156 113 98 211 143 205 230 126 157 190 116 77 49 65 49 76 127 238 217 138 123 205 220 241 243 250 235 166 218 61 135 103 140 12 8 195 228 221 234 224 242 233 228 4 0 19 39 0 
117 118 106 75 88 159 173 164 134 234 250 60 49 197 164 170 172 190 242 164 99 159 164 251 224 119 173 122 123 193 154 132 182 250 241 240 241 227 248 229 233 192 145 169 182 93 151 166 159 117 107 146 61 61 119 138 128 100 93 92 145 87 134 108 199 140 133 186 131 116 199 73 194 248 49 188 244 108 150 58 80 42 212 245 252 107 129 234 235 160 223 185 200 216 236 207 48 67 85 93 40 0 190 234 247 247 232 250 230 244 5 9 3 19 0 
39 165 138 142 109 47 68 97 170 245 235 228 231 8 176 154 218 242 191 246 230 237 227 163 204 133 227 250 241 148 120 32 184 242 204 245 255 244 149 224 188 215 99 110 92 109 97 55 101 106 133 31 90 40 122 91 125 73 43 62 54 61 83 10 208 209 154 134 118 181 113 106 59 63 141 62 39 105 71 78 38 100 235 239 47 97 74 80 101 80 157 245 104 187 32 95 70 151 66 240 35 2 179 230 224 220 224 246 237 247 1 3 20 23 2 
135 186 205 25 30 28 23 157 194 237 254 240 198 186 24 129 99 174 245 245 241 217 216 210 190 143 63 84 164 136 85 126 150 176 186 229 233 110 101 115 32 69 156 66 58 40 45 15 41 68 50 60 45 62 29 37 81 70 45 25 107 70 46 78 83 84 179 125 100 90 80 137 134 94 98 100 98 73 108 37 44 45 119 170 31 17 231 237 154 107 231 166 180 148 113 145 123 141 104 227 20 0 192 198 239 233 225 242 244 255 25 8 8 26 5 
43 193 206 69 49 19 73 163 224 244 231 248 230 226 19 45 189 185 134 241 246 231 99 221 182 104 8 237 178 88 125 201 213 171 53 195 255 127 27 42 53 67 178 60 55 19 48 38 37 68 61 65 23 104 55 21 86 46 64 89 127 70 50 91 77 52 80 110 129 106 82 113 144 119 100 86 47 60 47 41 39 77 27 38 38 25 106 254 235 68 228 210 142 169 168 170 85 134 200 201 31 0 242 205 228 221 232 227 244 242 62 0 8 23 5 
79 14 22 129 121 128 63 131 153 187 232 226 255 96 140 92 148 186 124 142 132 137 172 125 188 64 196 170 88 62 171 56 121 242 171 94 66 60 204 174 70 163 77 115 99 25 38 59 85 98 93 88 43 34 33 53 138 133 67 148 92 92 121 115 96 94 134 94 120 186 95 122 75 45 68 75 120 162 45 101 108 147 71 101 130 104 58 69 139 79 255 247 232 237 26 105 173 63 201 176 12 11 225 232 235 222 241 243 238 238 135 12 4 5 24 
1 54 73 0 22 76 202 150 215 132 162 83 122 175 162 157 104 218 153 76 171 234 143 66 102 85 52 68 54 67 52 70 72 87 68 106 49 161 101 125 110 139 32 44 37 55 50 36 54 74 110 74 98 63 73 20 63 44 102 238 218 86 96 95 95 116 107 102 121 59 85 82 60 79 81 108 52 53 94 31 53 126 91 54 79 110 104 104 104 108 86 41 31 39 89 76 41 112 46 183 5 17 207 218 228 231 231 255 253 250 190 26 14 0 19 
18 100 134 20 7 0 69 181 226 186 180 43 108 195 212 119 50 128 70 113 103 87 172 87 151 69 135 155 36 101 36 57 94 54 150 73 102 151 81 129 149 130 125 80 90 35 28 64 56 78 144 57 103 64 60 54 42 67 115 147 118 54 41 59 27 92 133 131 101 22 124 155 132 172 49 24 40 107 112 29 24 162 95 115 91 139 98 149 97 72 113 58 53 60 72 44 79 26 69 89 12 68 77 86 119 131 122 217 232 233 200 55 50 4 21 
12 167 96 97 88 58 47 10 41 178 175 85 139 146 119 206 44 107 55 103 68 148 108 79 94 50 151 90 106 144 79 29 171 123 117 219 188 169 213 55 114 200 228 83 33 146 71 42 45 112 122 47 66 94 142 125 77 83 42 90 143 46 147 137 191 162 80 47 66 50 95 41 50 65 143 130 33 6 191 106 203 111 58 108 20 132 104 128 137 104 59 68 87 144 81 73 114 73 99 21 68 30 123 62 68 99 108 102 98 105 109 8 91 21 16 
1 110 161 86 143 171 93 145 85 3 17 51 140 56 39 77 117 43 111 51 112 53 140 114 136 129 95 110 50 86 52 126 64 72 13 53 30 62 132 157 106 107 44 44 81 38 91 74 103 12 60 63 48 20 30 69 103 136 133 148 128 116 185 224 94 85 60 63 72 28 55 147 60 79 64 113 105 130 121 120 103 215 111 177 48 162 57 148 113 146 127 71 74 143 55 45 87 146 41 75 116 97 46 105 70 149 142 174 127 125 68 21 105 28 116 
11 115 95 118 159 89 69 94 145 65 23 3 42 73 112 44 60 78 84 79 116 81 84 114 144 60 144 86 131 81 53 172 50 39 27 43 65 72 125 100 50 108 80 77 103 32 55 55 130 32 50 92 96 52 43 93 121 140 109 106 103 185 102 175 74 116 77 102 5 39 65 128 119 106 44 64 138 11 117 161 135 121 161 168 93 122 46 79 107 141 39 86 66 126 40 61 77 109 13 101 101 61 129 122 79 121 184 160 104 93 40 70 47 76 110 
0 87 211 156 190 58 139 100 153 89 123 132 33 53 34 8 55 38 80 74 102 135 27 95 182 185 134 156 155 187 174 26 132 151 152 36 33 10 139 105 30 144 254 71 123 64 68 57 62 69 115 80 19 15 147 158 136 78 70 180 111 76 131 44 108 44 139 36 89 62 82 197 142 50 192 179 27 68 114 161 116 155 126 142 170 144 150 31 59 84 139 116 113 77 93 86 44 43 25 62 43 46 98 42 107 80 112 118 111 66 0 17 8 80 84 
9 84 187 193 190 45 105 173 94 150 153 160 149 31 96 87 53 94 118 126 171 174 91 81 21 55 52 60 42 83 57 108 120 81 19 133 67 118 44 154 90 127 145 201 81 37 225 128 45 118 128 127 26 35 62 140 158 117 145 112 72 108 61 46 71 108 96 146 115 95 25 87 17 110 147 107 41 29 144 189 146 69 80 76 154 186 103 79 159 111 218 171 105 46 129 81 58 37 50 62 75 50 45 51 79 67 106 67 77 13 80 57 28 61 0 
3 156 209 141 180 71 114 136 99 129 103 129 129 24 120 71 52 93 78 77 121 129 82 102 56 50 110 42 10 82 100 148 147 107 48 145 83 128 75 141 186 124 81 230 40 114 92 187 105 71 108 90 59 54 30 119 124 111 60 129 63 110 79 38 92 160 111 108 161 53 39 58 45 57 59 55 71 38 82 193 180 98 190 148 121 161 145 126 149 88 158 130 72 92 126 92 44 9 41 84 29 36 49 54 88 99 124 125 85 24 36 21 53 12 35 
9 145 142 147 120 101 77 119 84 96 100 68 34 90 47 55 45 45 43 101 45 12 36 60 58 63 120 38 82 51 115 176 87 129 57 122 20 55 53 142 154 149 183 159 88 152 208 179 137 93 51 146 90 121 85 173 89 160 102 140 111 96 158 128 130 164 86 181 82 105 50 54 177 114 60 19 53 161 118 203 101 41 30 15 25 31 56 53 76 59 31 49 57 21 59 71 91 53 88 84 47 90 82 60 75 24 40 43 76 71 101 88 10 20 122 
0 215 121 153 114 107 146 88 142 145 80 121 123 78 154 117 105 105 59 86 124 164 72 113 119 138 83 56 100 57 188 123 169 174 105 41 135 160 40 172 196 102 85 155 123 96 62 145 107 140 121 141 106 143 115 182 114 73 150 133 100 108 105 147 79 43 73 182 159 148 111 43 200 26 12 114 28 115 152 193 147 29 17 64 48 81 59 35 81 100 57 84 61 54 69 41 82 19 75 57 51 102 16 52 25 70 40 55 123 32 7 44 81 131 136 
3 211 86 133 25 106 87 54 130 112 129 93 57 96 101 163 160 54 131 117 51 184 162 75 159 150 86 40 80 69 168 154 110 109 152 62 150 193 120 182 119 67 62 88 93 68 92 70 69 169 146 180 84 146 105 102 90 108 127 106 77 86 74 119 58 27 54 123 115 154 156 59 65 25 36 62 17 24 144 194 98 9 59 78 33 40 77 48 53 48 71 92 75 62 52 45 89 55 78 56 20 38 48 25 67 48 56 20 79 7 47 5 49 106 95 
12 116 95 109 142 141 87 136 109 172 72 51 61 86 155 111 114 68 157 138 127 113 152 149 137 83 207 124 108 52 154 129 137 153 157 123 190 144 104 98 77 127 102 68 132 137 158 164 92 106 157 103 190 152 111 99 134 141 99 71 63 87 110 53 108 26 77 156 168 179 125 112 131 34 81 83 45 55 66 34 4 61 97 54 44 47 84 76 80 54 68 80 53 76 113 68 76 34 127 98 34 58 75 31 37 5 53 58 40 19 22 69 5 51 99 
0 109 105 120 86 85 126 111 104 92 134 114 121 156 121 70 128 130 105 181 142 178 143 86 65 100 23 31 73 132 87 152 115 139 107 161 72 95 76 53 88 118 101 140 98 177 119 118 169 133 171 91 120 113 163 109 168 167 118 69 87 141 96 112 148 162 155 84 170 203 76 67 34 52 71 74 101 32 24 15 5 57 50 67 83 54 56 63 63 90 102 41 76 80 53 128 113 57 106 56 0 19 55 42 44 94 63 34 54 23 53 44 39 12 55 
8 104 83 110 114 100 86 104 86 108 138 94 137 132 129 89 151 114 94 177 132 142 56 110 51 115 41 91 71 145 151 177 99 97 107 129 135 108 79 167 124 142 155 151 133 168 126 149 190 167 133 107 66 116 211 134 156 117 94 82 87 127 115 95 165 213 198 135 68 107 161 54 67 48 68 48 80 53 39 22 27 72 52 85 89 73 63 66 88 13 77 50 99 47 34 85 91 72 35 24 47 22 12 37 84 28 22 46 24 34 87 84 19 3 75 
4 94 128 99 81 133 123 162 69 70 94 133 82 63 93 159 137 166 162 170 111 124 160 58 85 91 20 25 31 75 77 75 169 152 158 155 117 145 128 91 138 133 115 104 163 97 139 146 133 132 105 207 165 168 108 167 176 96 125 85 137 151 130 70 34 216 195 118 194 158 82 181 164 36 164 113 35 57 86 20 34 74 90 78 97 75 98 87 92 106 64 79 60 101 40 95 143 7 84 151 94 31 94 86 113 73 75 58 41 11 7 29 67 33 60 
14 74 106 137 108 70 72 111 135 126 164 94 99 150 133 122 97 139 59 55 50 100 153 103 139 93 53 127 65 118 138 114 93 124 87 123 154 70 107 137 41 89 100 135 121 137 115 129 75 161 154 140 197 208 114 117 158 112 164 204 221 189 60 166 109 207 201 114 89 131 147 239 153 47 140 180 156 55 103 64 12 69 100 87 104 128 122 63 145 59 90 57 65 38 132 135 41 43 101 108 60 78 63 4 88 86 40 101 80 40 78 14 30 34 54 
10 93 151 96 101 62 71 123 63 166 84 135 65 72 152 139 146 116 104 30 51 102 116 98 161 114 85 112 47 94 140 136 135 116 88 97 140 66 129 113 107 37 66 133 112 101 132 119 68 161 134 126 96 172 119 93 150 103 123 131 198 234 64 82 98 195 185 169 82 79 108 172 132 86 116 158 70 88 5 58 40 37 142 97 110 113 109 71 91 60 74 41 69 92 98 90 47 48 129 128 104 20 92 71 82 3 36 73 101 71 161 15 15 50 1 
2 93 51 30 98 71 106 99 71 148 124 112 56 121 73 55 98 75 105 133 116 45 74 121 135 130 126 140 114 152 81 95 161 131 150 120 92 138 140 145 96 124 135 115 150 160 155 91 49 150 154 105 72 77 116 107 109 130 236 107 123 148 130 49 63 165 191 135 127 99 189 74 141 94 138 137 114 65 26 30 99 73 91 59 97 87 87 85 51 93 92 96 54 66 152 42 18 157 96 106 47 28 61 89 151 80 118 110 97 96 112 43 64 12 32 
0 63 70 82 69 62 86 93 95 65 93 150 152 58 127 105 190 163 144 139 113 123 124 89 146 107 171 100 112 106 132 127 145 98 134 158 161 127 123 122 109 147 119 168 125 145 40 160 98 177 177 110 113 81 108 200 142 167 140 128 18 86 146 84 40 238 122 119 121 126 81 105 114 87 98 143 168 40 12 16 82 132 82 99 58 47 87 68 180 59 72 87 60 78 120 43 91 63 80 102 67 33 33 47 61 16 80 69 145 49 53 130 40 31 52 
7 82 72 58 40 62 44 84 117 77 90 140 119 73 75 113 167 194 156 176 197 111 122 115 120 147 158 138 141 85 97 141 121 131 150 164 132 128 139 99 127 140 142 171 111 186 72 85 87 133 106 94 55 72 130 208 182 168 139 119 20 83 177 75 14 243 130 129 153 185 50 104 173 74 63 177 168 53 48 14 84 92 135 100 79 94 46 76 164 46 43 63 99 113 141 33 134 83 54 85 94 67 19 11 39 9 53 54 104 82 101 128 22 27 48 
31 80 59 96 106 57 107 93 84 170 136 117 100 118 121 97 111 61 107 192 101 114 42 44 91 90 150 99 102 100 111 127 174 85 66 100 78 87 108 111 118 72 159 108 148 38 43 140 66 162 108 159 93 65 140 119 159 94 160 181 9 88 120 135 126 211 200 52 129 141 10 117 170 27 62 163 134 25 13 60 99 53 121 66 49 26 55 32 208 28 59 109 89 105 124 70 105 44 28 65 117 71 19 27 17 114 132 143 96 138 142 103 25 47 35 
15 74 161 122 65 111 68 82 118 101 87 60 121 92 55 119 176 123 76 108 196 79 95 83 78 72 113 80 108 113 93 111 147 108 127 118 53 90 124 166 131 88 133 167 95 34 135 92 23 205 192 71 92 119 77 173 125 136 56 71 116 171 152 67 76 222 104 158 55 127 42 86 104 7 7 7 227 223 122 20 19 160 116 36 21 55 71 47 189 94 119 145 61 57 111 96 73 81 36 41 67 130 107 23 121 109 125 105 140 81 49 36 35 85 57 
4 165 62 171 51 83 100 55 129 68 62 96 137 107 81 131 135 170 139 102 135 119 84 94 139 152 99 99 95 102 134 103 162 92 87 106 44 106 76 131 75 53 121 231 20 30 122 149 26 214 173 144 75 107 75 150 134 122 26 20 55 129 166 39 35 226 169 174 37 145 25 67 135 7 6 21 209 166 122 0 43 181 135 50 45 59 68 44 185 108 151 115 50 74 99 76 45 79 53 68 109 28 63 63 108 143 84 114 131 46 33 28 52 75 8 
1 95 156 100 11 95 60 106 30 76 127 119 83 79 99 157 140 124 138 127 122 32 119 174 163 106 137 114 125 149 113 145 112 80 121 124 89 61 122 128 44 88 136 121 8 36 109 125 98 177 220 205 83 142 119 28 18 15 45 8 9 77 118 61 31 238 214 192 41 136 40 18 12 38 24 21 177 24 8 57 30 187 166 18 38 60 40 63 149 126 90 74 83 58 66 80 59 87 54 125 91 134 88 126 85 107 106 53 36 45 11 42 39 44 4 
5 132 106 68 52 51 78 59 50 5 39 83 123 99 130 104 167 104 159 147 117 192 0 11 130 196 132 166 84 97 118 115 117 125 128 93 150 138 52 90 142 99 132 104 75 85 37 136 105 213 177 210 60 80 172 85 76 84 97 115 90 119 133 64 15 219 207 205 30 129 99 116 89 100 88 89 177 6 27 42 15 150 170 183 139 129 113 102 98 74 51 67 22 47 56 48 68 89 126 25 30 82 94 6 106 88 47 78 33 5 13 66 102 59 0 
1 107 82 49 39 60 25 51 57 19 17 40 162 110 143 135 171 187 113 168 123 75 93 17 126 159 65 53 41 99 119 124 104 136 111 125 115 130 35 87 109 148 163 191 174 200 154 174 109 165 198 228 28 33 162 175 188 190 192 185 192 193 110 54 28 235 218 205 55 121 188 190 199 176 183 176 149 25 55 15 40 156 70 112 91 67 13 18 26 52 22 16 34 23 36 40 20 73 131 71 7 44 41 21 56 41 79 106 34 23 37 48 84 66 4 
0 80 94 75 79 49 44 19 23 48 62 20 23 99 126 79 59 123 160 133 163 122 59 95 128 105 140 33 89 114 43 180 100 78 102 138 3 44 99 44 126 158 100 147 125 151 146 112 150 187 138 221 38 64 90 34 40 131 199 148 54 17 49 57 21 229 206 208 50 53 64 45 40 55 30 52 32 19 53 22 32 31 40 39 27 36 37 40 59 21 41 47 13 47 9 41 75 43 87 131 18 14 5 6 65 104 97 50 20 7 51 85 53 54 0 
0 59 69 59 42 7 10 32 11 40 22 52 15 66 4 89 125 171 131 170 140 84 213 152 105 137 163 131 105 182 122 131 146 31 76 146 112 6 80 105 37 50 116 120 100 130 124 135 67 140 200 183 89 91 140 190 189 159 155 157 210 210 162 44 6 236 213 214 39 59 57 59 52 57 43 53 21 20 49 37 23 36 39 27 35 47 33 64 98 115 82 91 146 31 38 8 56 67 48 81 83 45 1 49 64 55 32 4 40 37 84 55 106 88 8 
11 59 52 22 15 10 41 36 3 41 58 42 52 0 14 44 114 47 98 174 197 105 156 131 68 162 134 34 71 104 68 113 45 18 23 102 166 43 63 132 69 52 106 119 56 161 87 99 39 134 191 174 221 114 157 164 157 148 176 169 139 148 214 145 70 234 201 212 44 69 54 43 60 54 46 38 50 35 47 16 37 49 42 36 24 37 26 50 14 121 116 128 138 78 105 61 106 32 85 86 108 38 21 22 74 70 47 28 12 47 76 57 104 85 3 
0 50 35 24 13 34 14 51 34 15 24 1 21 19 40 24 54 39 22 71 14 116 32 6 136 155 35 105 124 41 16 14 39 109 122 116 166 148 16 50 30 59 134 92 108 138 58 75 53 201 207 205 215 138 164 170 173 192 180 181 176 187 155 164 94 229 196 231 36 57 72 140 150 145 101 37 34 21 45 23 31 17 22 26 33 11 7 11 10 37 43 97 36 25 20 120 16 9 20 93 60 12 2 49 35 28 13 15 7 62 69 72 109 78 9 
0 67 13 45 33 19 33 41 28 19 39 25 32 23 33 60 32 42 20 50 38 45 19 34 73 136 123 117 106 73 43 35 57 104 74 117 121 96 8 52 27 56 178 176 171 164 152 69 6 196 212 207 226 74 145 166 144 140 147 158 138 148 142 135 3 237 218 230 12 58 164 181 181 172 176 152 30 14 40 29 11 113 93 105 85 78 74 69 86 87 53 64 18 46 9 144 6 46 34 88 30 37 5 36 46 26 47 2 40 76 93 86 110 96 5 
15 122 36 32 21 12 17 28 27 32 42 47 17 27 20 21 69 59 45 52 57 72 146 139 154 150 94 71 87 86 12 36 150 145 167 44 31 15 62 33 66 119 123 142 171 177 165 133 22 210 200 211 210 30 117 172 197 192 194 196 193 186 181 127 0 246 223 211 60 138 175 176 163 161 162 152 78 23 17 0 31 93 197 179 187 170 162 144 153 83 134 116 92 17 113 35 95 83 77 28 56 1 18 29 60 40 26 15 29 63 97 62 106 74 8 
9 41 25 14 14 33 41 19 11 81 33 10 31 11 13 46 69 36 38 19 42 129 142 95 122 130 97 22 85 54 8 24 31 12 157 30 23 40 54 27 43 16 188 142 144 140 145 55 13 212 219 195 213 50 111 186 7 29 26 7 2 23 202 133 18 241 196 223 37 98 152 129 118 114 98 202 21 21 49 20 13 130 207 1 2 0 2 2 38 115 46 60 29 23 33 30 17 6 7 85 71 35 0 47 46 27 13 30 36 70 128 72 78 76 1 
6 111 43 6 7 20 26 34 14 108 13 4 21 19 12 7 69 45 16 19 53 44 115 139 146 131 117 43 134 52 22 29 6 0 156 18 17 42 52 36 35 43 169 28 37 24 95 76 21 203 209 197 221 40 128 208 4 10 9 30 53 9 191 126 7 240 209 219 33 84 121 18 19 8 3 205 22 16 39 9 15 132 222 4 9 17 9 7 50 59 25 0 34 48 44 19 28 7 8 96 60 41 0 63 22 31 31 8 46 66 113 80 87 63 0 
13 156 13 0 18 5 9 21 48 45 25 0 28 8 33 34 53 5 2 19 14 28 32 44 61 10 91 38 64 9 24 0 4 8 172 19 14 40 45 43 27 27 170 19 11 0 116 66 2 207 207 194 223 47 141 211 2 32 57 73 68 47 216 158 23 238 210 229 31 76 131 19 34 41 25 204 15 38 55 27 29 100 208 4 20 12 16 10 22 3 13 17 16 26 25 24 13 18 5 8 12 19 6 95 3 21 7 12 53 52 62 76 67 50 6 
5 167 96 83 4 21 16 19 30 66 11 25 40 16 14 15 80 45 0 0 0 5 96 36 36 27 11 12 0 3 9 4 1 2 176 21 20 22 48 45 28 29 173 16 17 15 117 61 12 197 203 198 217 47 145 205 6 16 48 29 22 16 208 165 23 230 212 222 31 71 136 38 25 35 19 197 22 18 54 42 22 81 206 3 19 19 14 21 7 12 5 11 28 22 39 12 37 12 5 12 36 10 6 127 4 35 4 8 39 51 86 68 92 73 7 
0 32 25 8 26 5 28 33 15 65 16 6 27 34 37 25 44 25 1 11 1 26 48 7 42 30 6 1 20 28 0 5 4 0 179 19 14 22 40 45 29 29 173 17 15 13 116 61 11 195 206 201 217 45 142 203 3 17 33 22 19 16 213 170 23 231 213 221 28 67 141 43 19 34 22 196 21 20 42 28 27 75 206 0 7 11 10 0 18 29 16 0 10 19 26 12 26 19 12 19 38 14 2 107 0 27 6 16 39 67 62 87 88 66 2 
2 56 13 31 5 26 13 14 30 13 37 14 19 29 40 15 37 31 11 30 20 13 51 6 16 4 8 26 14 6 10 0 2 8 179 17 13 22 40 45 31 28 174 17 13 10 114 62 11 192 206 200 214 41 136 200 0 9 14 5 8 4 207 165 21 229 206 219 24 61 147 31 21 32 24 193 24 19 40 16 21 59 210 2 11 15 11 9 0 88 15 13 11 36 32 19 2 25 39 34 6 47 5 19 1 12 19 4 32 44 77 95 75 77 1 
1 136 15 1 20 4 1 24 7 25 15 15 8 16 25 38 23 2 1 22 22 3 109 6 4 12 0 94 27 24 8 11 0 1 180 17 15 24 43 52 45 26 173 16 14 8 112 61 11 191 204 200 212 40 134 202 0 9 12 15 8 0 211 170 18 223 211 218 22 56 154 13 12 30 22 188 29 20 40 29 18 38 206 4 10 10 0 6 2 158 25 28 12 6 18 11 15 35 23 32 19 62 14 25 30 35 17 7 19 75 57 83 72 81 0 
19 75 23 26 1 13 4 12 34 15 49 9 25 9 17 5 82 43 11 4 0 9 120 2 26 5 3 75 65 0 5 0 0 1 188 20 19 28 47 53 39 24 173 15 11 7 110 60 11 192 205 204 215 44 136 207 3 11 18 18 10 4 220 177 16 215 204 219 23 54 159 10 15 23 15 184 34 23 42 45 19 27 201 2 9 13 5 0 4 100 20 8 34 29 38 7 30 17 32 20 32 68 31 52 11 18 2 32 13 42 75 92 87 74 0 
0 157 52 2 8 5 13 2 14 3 29 22 1 12 7 2 81 49 1 3 2 7 12 6 7 0 9 88 59 20 0 4 0 0 182 17 17 26 45 52 40 22 173 14 8 6 109 60 11 191 205 205 215 45 135 209 2 9 14 10 7 2 219 172 19 208 205 220 26 53 161 11 10 9 6 180 37 18 52 32 23 29 202 6 9 15 10 18 0 123 20 18 9 15 8 4 19 36 8 30 10 24 8 24 37 6 27 7 12 57 81 63 81 87 5 
7 34 33 6 15 10 0 6 46 47 27 7 3 1 9 5 48 0 20 5 16 3 47 5 0 15 0 94 40 0 8 0 0 10 179 13 13 22 42 50 40 21 173 15 6 4 109 62 11 188 203 204 212 43 132 208 0 6 14 10 10 0 216 172 27 204 206 221 29 54 161 9 9 5 3 176 40 18 39 18 21 29 199 6 5 5 0 4 32 49 13 9 21 22 7 28 7 24 33 18 0 32 3 29 20 1 19 2 39 38 61 89 91 81 1 
2 94 23 20 0 9 0 25 65 78 65 13 41 36 38 51 1 9 4 1 5 0 20 0 14 6 2 116 44 11 0 3 0 2 183 13 23 22 41 40 28 20 174 16 5 2 109 63 11 186 202 204 211 42 130 208 1 7 10 16 11 0 212 174 34 203 207 221 31 55 160 8 13 12 5 172 40 18 29 19 18 25 193 11 17 17 9 5 3 55 20 25 30 13 0 8 15 8 3 14 31 6 23 16 0 32 43 21 6 56 65 82 96 71 0 
0 104 18 23 0 0 4 47 44 44 12 0 15 35 54 66 60 49 37 40 25 3 2 0 2 3 0 112 35 9 4 1 3 5 185 10 19 17 36 60 40 21 181 10 4 7 109 66 9 186 210 205 213 42 130 213 0 7 12 24 8 4 214 173 43 196 212 224 28 54 161 43 60 51 40 158 48 35 24 21 27 15 193 63 87 69 54 59 61 95 22 10 3 47 23 3 8 17 16 17 36 124 112 100 3 39 20 27 8 41 75 97 88 44 0 
2 112 11 23 0 11 0 59 44 57 0 35 7 58 81 119 115 100 49 14 52 24 6 19 7 3 6 30 95 105 101 102 113 111 122 13 34 33 23 47 66 20 143 144 156 142 161 59 9 180 67 102 226 30 132 204 7 21 0 7 17 2 206 170 32 181 157 97 41 37 189 117 117 102 102 141 50 26 14 9 7 9 32 9 62 61 44 15 19 40 8 33 18 18 54 79 95 78 90 78 16 70 57 92 34 0 13 25 8 31 52 75 95 58 0 
3 105 13 10 3 20 16 70 55 17 15 10 15 23 86 89 99 84 56 45 27 28 23 24 32 25 2 9 4 12 0 1 21 8 23 2 13 74 97 77 97 98 25 51 51 41 103 53 6 182 90 95 225 34 138 205 0 0 13 20 4 5 214 165 40 197 190 88 164 58 154 43 37 28 114 38 135 162 170 165 147 148 155 149 30 7 20 21 0 0 10 12 57 36 71 126 143 132 117 51 0 45 68 80 28 20 0 0 1 34 45 75 99 58 1 
17 84 4 32 38 0 3 42 52 37 33 28 4 14 60 80 109 112 54 53 11 23 35 14 7 28 3 6 0 43 19 12 0 32 88 82 106 119 164 189 194 205 73 27 43 45 15 76 17 166 129 99 213 35 117 195 3 16 7 9 1 0 201 186 30 207 211 93 172 47 45 54 50 38 209 174 67 103 144 141 130 128 130 116 82 0 29 9 33 24 16 31 36 24 103 119 103 130 147 89 2 19 69 80 45 12 0 6 8 0 36 74 96 53 3 
1 16 30 0 13 31 18 52 33 22 9 11 9 19 82 94 66 34 41 16 28 9 22 7 21 20 2 9 13 64 17 1 35 94 149 135 90 100 99 100 63 99 103 17 34 41 35 17 42 179 104 109 212 115 122 213 0 12 0 15 9 6 185 147 51 212 194 149 87 136 49 42 13 37 104 30 25 14 68 38 31 32 13 22 11 49 33 11 8 41 18 47 0 50 73 137 115 90 111 106 26 29 76 66 49 5 22 20 9 13 29 59 76 45 4 
41 13 67 127 98 22 98 97 110 95 117 125 81 76 135 113 127 131 133 132 147 165 139 13 0 6 1 0 2 20 0 24 26 75 78 75 27 7 21 17 66 48 26 41 61 53 47 28 75 95 30 78 124 103 65 116 20 46 54 36 52 41 110 87 62 98 100 83 36 119 64 61 52 15 28 108 62 73 2 94 8 47 21 49 62 22 22 3 17 31 22 35 13 37 48 101 132 96 110 112 0 20 50 54 54 11 42 15 0 22 7 29 79 92 5 
89 40 95 111 73 6 79 122 127 110 104 136 90 32 137 133 94 131 136 99 120 104 88 131 160 139 144 150 148 133 0 0 2 9 16 115 76 50 71 33 102 42 70 56 74 68 70 58 36 23 44 64 50 50 43 49 65 57 46 59 71 53 62 90 70 48 51 40 51 64 64 76 52 73 67 119 79 132 144 130 19 64 77 61 94 101 99 123 89 104 106 78 121 118 122 132 151 117 121 133 48 30 72 67 63 77 68 99 53 87 86 30 71 93 39 
10 0 60 54 5 40 125 131 129 49 32 114 29 25 113 108 82 133 140 153 48 4 57 26 140 153 124 146 148 135 115 138 162 151 25 88 27 66 46 44 67 44 65 60 62 69 72 59 76 47 74 23 70 80 100 77 82 85 94 75 78 74 90 56 76 99 95 66 32 69 86 62 59 73 67 41 70 39 45 67 65 83 178 88 142 157 162 152 147 158 70 134 96 77 43 81 162 162 168 95 137 118 157 90 151 152 168 23 104 135 143 35 24 96 42 
18 5 8 0 34 10 31 60 52 30 12 53 78 55 17 20 8 50 94 76 122 14 39 38 45 39 27 23 126 70 19 88 161 180 120 114 96 135 121 140 135 149 118 134 116 104 119 124 49 52 81 46 66 91 74 89 103 66 55 76 112 104 87 110 99 59 62 91 56 77 181 188 187 161 145 181 137 157 176 82 129 70 131 160 124 168 132 126 162 128 92 136 118 50 38 38 166 149 143 146 103 95 165 18 109 99 125 11 50 137 139 45 71 103 47 
46 40 43 55 16 28 16 38 25 10 37 25 40 32 2 0 25 27 50 46 38 71 53 30 27 49 51 45 26 13 29 10 54 16 34 13 159 121 147 123 171 171 148 163 150 158 180 168 174 110 57 69 46 71 94 102 74 94 97 71 88 78 75 74 111 92 87 71 180 174 174 134 164 144 109 175 170 103 73 57 169 186 121 83 51 53 155 199 164 130 44 22 174 105 30 100 178 168 174 160 73 27 41 101 153 172 157 103 41 85 60 15 65 97 20 
0 64 22 20 48 93 97 78 69 49 52 43 46 33 36 10 47 17 23 31 61 24 23 31 61 47 39 73 81 52 47 36 60 45 79 30 19 3 74 67 86 111 79 77 72 122 166 118 75 187 180 129 67 74 82 108 105 100 76 85 88 96 93 90 86 171 175 186 177 184 133 97 125 23 62 99 151 153 163 103 160 165 118 60 22 52 2 23 149 140 109 99 125 135 128 26 143 94 123 145 35 68 12 57 79 89 76 92 45 16 43 2 68 88 83 
0 47 76 52 94 125 121 53 99 127 114 75 34 75 37 118 66 85 87 61 84 77 96 55 75 36 93 58 81 81 77 66 34 41 55 71 114 16 31 39 124 131 58 59 95 151 39 19 136 169 179 169 177 126 128 134 156 152 143 159 152 157 157 164 188 205 180 191 182 190 104 102 152 104 84 20 69 43 65 30 35 81 51 33 30 10 59 57 59 43 68 20 63 57 48 92 55 56 75 69 20 27 44 14 47 28 41 13 29 32 10 3 71 86 17 
4 71 56 37 34 46 72 32 56 53 50 69 33 69 43 61 68 102 85 105 90 65 107 60 119 127 111 116 166 82 46 50 141 103 81 77 135 86 62 92 81 74 58 88 131 144 46 53 179 147 197 187 197 173 173 177 177 171 162 183 175 182 207 205 185 172 187 170 186 140 97 79 161 87 46 57 95 63 39 59 96 119 97 31 24 78 35 75 101 47 37 62 82 58 81 50 91 66 60 62 48 65 56 88 26 51 45 61 21 70 42 0 82 86 8 
1 59 28 53 36 43 81 113 90 105 142 17 73 88 92 66 46 57 40 46 95 48 75 93 74 81 46 65 100 60 93 69 43 65 86 112 158 110 124 124 31 87 52 84 110 103 95 153 166 175 180 182 154 182 192 173 176 183 153 188 187 189 186 159 155 186 167 177 156 164 95 55 22 38 40 53 36 43 78 64 123 153 104 88 90 65 55 70 48 102 124 40 51 68 74 53 42 54 83 46 79 58 82 44 43 75 50 45 89 46 86 23 67 78 7 
8 34 64 46 58 55 78 55 47 48 113 47 58 57 95 80 95 97 76 83 70 97 57 82 59 83 50 51 132 74 62 74 108 80 124 62 53 88 42 68 102 49 34 52 96 83 90 48 38 137 171 168 168 156 149 179 183 186 164 190 154 156 159 164 146 129 83 31 44 95 68 128 82 42 71 93 69 105 98 81 77 70 76 135 144 86 55 87 69 56 61 113 65 92 53 95 140 55 64 91 62 46 48 80 28 106 84 63 32 61 76 34 2 72 12 
0 77 47 56 77 110 25 63 101 41 68 91 98 74 92 54 56 57 29 59 87 48 77 93 46 67 96 87 46 64 95 57 52 71 80 64 95 79 103 65 117 136 71 42 71 114 73 69 46 34 97 137 149 149 151 163 149 165 166 160 160 163 165 153 143 100 83 60 53 50 67 50 155 150 153 113 145 163 176 122 81 119 59 75 53 112 128 60 102 65 120 98 82 67 99 70 108 73 103 66 55 84 65 54 76 56 82 95 78 92 58 11 17 86 10 
22 88 80 39 92 47 77 48 65 43 63 50 59 74 61 43 92 24 53 41 89 54 49 47 66 44 96 76 45 87 76 81 54 90 75 60 87 82 124 141 136 114 133 139 138 148 148 140 143 152 136 144 155 154 158 158 163 139 161 152 152 164 169 169 158 156 153 150 156 157 148 158 184 161 137 179 145 172 147 142 118 128 75 79 104 115 78 84 64 79 92 101 75 92 75 86 74 89 91 77 84 92 75 92 97 77 70 49 93 56 80 86 11 67 38 
2 106 51 61 70 61 50 77 86 66 81 58 103 161 64 94 59 71 87 111 62 131 138 106 62 134 94 89 39 53 64 92 51 68 95 87 90 77 70 86 71 158 142 90 131 98 142 147 116 148 153 160 152 160 175 165 167 145 168 165 166 174 170 166 171 160 166 160 140 156 182 175 148 170 140 87 89 71 129 102 89 107 85 63 83 99 84 84 156 123 106 66 87 71 139 123 116 130 140 161 153 162 138 128 121 101 68 99 65 95 75 115 44 15 80 
2 112 80 184 72 62 51 99 67 81 74 84 95 56 91 64 97 125 94 72 105 96 100 84 107 121 115 83 111 104 76 120 110 106 88 83 52 109 70 103 81 60 46 71 105 151 158 151 120 179 142 155 172 166 166 168 160 156 168 173 169 171 178 179 181 183 184 184 171 180 173 169 199 146 77 84 99 133 148 159 153 149 174 157 174 158 194 191 189 172 195 208 169 181 154 150 161 167 175 174 160 162 181 159 168 136 149 116 88 105 88 117 64 3 71 
99 138 87 73 109 100 97 51 92 61 98 70 63 112 47 89 98 107 77 97 81 108 113 102 103 111 86 82 88 101 115 63 79 104 80 75 70 112 84 81 61 79 83 61 125 158 149 150 146 157 161 171 175 175 178 181 187 192 193 195 194 199 202 205 208 210 212 204 211 201 207 213 193 213 156 123 100 127 159 171 181 181 182 189 198 190 184 206 196 198 203 194 204 200 164 176 147 163 163 170 155 145 156 159 155 156 136 131 114 114 97 121 77 14 67 
6 0 5 0 0 0 0 0 0 0 0 0 6 0 2 0 1 1 1 0 2 0 0 0 2 1 0 1 0 4 0 1 0 0 1 0 6 0 0 1 0 0 0 0 0 2 0 0 0 0 0 1 0 0 0 4 0 1 0 2 1 0 0 0 0 0 0 0 0 5 0 0 0 8 0 0 4 0 2 0 0 1 0 1 2 0 5 1 0 2 0 0 0 0 1 0 0 0 6 0 5 0 2 3 0 5 5 0 0 0 9 0 2 2 0 
