P2
# created by Yuvraj Subedi
65 112
255
15 0 0 5 0 13 8 0 1 7 0 6 0 10 0 0 4 0 4 12 0 10 0 20 0 1 1 14 1 0 2 9 0 6 8 0 16 0 0 11 0 2 1 0 0 5 7 9 0 2 8 3 6 0 4 0 2 0 9 1 5 3 0 0 14 
5 19 5 0 4 2 0 2 8 1 6 0 10 2 0 5 3 9 19 7 7 0 0 0 0 14 4 0 15 8 6 0 0 0 8 6 0 1 7 0 15 15 4 6 6 3 0 7 8 6 7 10 0 0 2 22 18 6 0 0 4 1 10 0 1 
127 162 180 214 34 22 143 152 212 194 248 243 197 212 153 220 215 209 236 232 151 205 187 121 169 243 254 201 99 166 237 185 198 229 198 241 230 176 147 239 146 252 165 219 140 238 99 222 30 168 107 140 165 195 115 233 233 225 104 193 221 255 148 131 82 
150 50 215 255 95 16 164 27 189 251 116 242 103 223 77 152 92 108 255 171 85 233 189 90 111 218 236 198 159 229 163 113 109 234 242 111 143 223 63 238 139 224 109 128 222 178 106 240 157 90 151 95 154 80 121 207 239 183 173 113 175 158 118 131 1 
73 169 81 72 212 134 208 83 82 196 241 171 137 168 192 240 91 236 198 196 88 79 150 22 111 168 163 158 233 84 203 80 90 177 170 215 173 131 102 226 128 76 236 179 100 250 222 247 195 222 78 90 86 157 75 223 237 139 112 121 84 92 218 72 187 
157 34 135 187 90 101 211 243 234 100 218 66 32 72 136 248 192 84 231 239 208 59 110 58 159 223 118 181 63 44 68 150 197 88 144 100 138 218 182 105 191 46 20 127 252 126 245 234 135 237 102 186 80 218 125 148 105 71 192 135 153 35 243 240 4 
203 37 210 103 224 242 70 94 235 79 235 216 155 21 82 135 245 83 249 161 231 80 170 148 179 194 67 41 45 106 15 92 194 137 223 124 176 207 225 153 222 59 216 193 230 170 155 205 200 192 192 108 205 183 147 110 210 98 227 124 252 99 93 116 0 
111 56 184 86 42 63 146 67 151 85 243 43 245 239 204 235 188 232 153 152 230 108 122 120 89 92 200 74 128 92 135 58 140 179 144 154 100 245 141 166 96 198 186 235 240 243 87 204 113 246 126 239 229 141 206 204 250 251 135 205 106 195 56 140 20 
154 10 109 141 129 100 109 143 35 76 129 210 238 245 192 210 171 138 105 206 149 117 66 149 95 153 195 97 166 36 69 201 75 165 119 240 185 218 232 236 149 204 144 197 103 200 160 33 142 130 198 85 128 199 139 230 67 211 144 247 240 100 206 233 1 
80 23 64 52 74 91 143 100 32 57 137 118 174 255 145 243 233 17 70 228 131 186 135 89 166 144 219 94 23 164 156 121 135 87 41 155 238 199 243 211 116 169 80 142 121 204 139 102 153 81 147 241 206 107 200 135 112 175 228 174 250 241 11 198 0 
166 84 7 187 192 33 91 206 88 138 41 216 106 228 245 107 210 78 110 236 66 230 144 148 187 248 88 149 107 239 235 221 224 243 173 87 81 182 232 196 128 201 208 131 239 168 59 171 132 44 218 237 243 199 105 205 206 204 196 136 50 133 192 252 1 
119 162 70 123 130 218 150 221 43 127 88 125 155 203 246 123 244 147 207 147 93 119 201 95 95 49 120 255 215 226 246 222 173 220 126 164 71 48 205 235 202 222 191 201 249 214 79 40 58 134 161 192 245 244 179 125 30 46 140 235 160 68 121 205 8 
85 211 4 168 235 153 224 205 62 109 61 106 232 185 241 179 217 225 149 34 157 73 121 153 219 153 168 136 250 255 215 250 244 194 237 194 134 102 126 238 129 169 233 173 239 190 174 68 98 160 14 47 206 210 242 138 53 35 91 135 236 29 84 241 7 
203 91 159 7 192 241 122 217 115 233 176 200 122 211 209 241 219 90 223 133 61 95 169 226 242 181 85 111 248 244 234 187 116 201 88 220 219 51 226 168 224 255 224 186 176 168 178 114 137 70 124 177 62 77 195 229 143 25 172 103 13 221 100 140 219 
112 149 210 51 71 149 140 235 221 199 208 110 174 221 248 183 78 245 125 160 95 173 200 100 187 215 118 220 123 196 82 67 195 88 174 226 222 162 246 157 208 120 211 104 167 105 223 35 120 57 60 99 232 150 7 5 5 215 10 166 182 0 19 87 160 
182 123 173 155 0 156 62 166 156 172 231 119 86 203 241 147 183 247 190 150 142 234 152 114 244 154 82 211 219 65 228 58 125 218 128 111 206 173 200 211 175 181 161 91 230 196 90 28 105 82 81 95 135 115 144 167 147 8 27 33 2 36 9 37 243 
128 158 103 112 14 99 146 140 113 154 194 243 221 91 222 233 249 236 214 73 105 113 184 198 67 87 118 76 172 87 90 133 107 237 73 154 231 204 123 246 169 238 104 196 108 80 240 49 62 108 97 25 90 243 225 180 216 148 65 8 35 3 204 251 95 
186 71 211 138 130 105 145 91 164 208 237 168 181 156 170 230 230 218 126 97 154 107 122 160 239 196 100 161 54 58 199 142 175 137 170 206 180 250 187 167 229 211 182 95 232 194 193 107 103 42 29 88 146 102 72 8 58 31 8 18 33 242 251 255 5 
226 153 202 169 47 144 127 135 186 224 254 230 120 218 142 252 190 222 156 165 113 111 66 204 211 100 231 199 42 206 166 229 62 58 103 122 232 223 219 114 244 142 87 58 246 203 187 82 58 66 85 146 232 66 14 15 5 4 42 92 143 53 255 230 8 
79 149 160 99 26 156 159 168 175 227 243 189 225 115 192 117 153 196 238 188 110 102 156 136 95 193 55 105 72 118 69 154 121 116 186 89 87 130 112 166 65 40 241 116 124 248 139 35 203 41 136 13 14 32 41 232 223 87 191 212 87 9 244 227 2 
147 82 104 178 162 25 177 195 164 168 240 170 221 206 160 193 96 211 165 181 151 112 109 130 226 209 230 148 46 128 148 177 131 145 93 153 192 209 155 243 70 123 211 169 213 61 151 187 48 199 5 162 146 85 200 215 206 162 130 120 139 3 245 242 60 
153 140 94 151 161 33 129 138 102 183 244 212 166 232 140 117 180 146 227 244 180 162 208 121 229 198 149 94 141 38 115 104 128 175 173 107 109 114 201 134 163 184 204 114 255 48 201 255 164 45 36 128 165 73 243 165 193 154 135 173 154 48 192 240 22 
79 97 166 43 146 96 44 180 143 166 171 63 193 144 212 247 84 116 97 187 237 221 160 227 152 192 107 115 173 132 153 167 84 81 108 88 128 66 214 192 206 169 75 216 103 190 142 81 1 9 181 106 203 185 150 47 93 128 178 152 65 9 116 189 2 
143 63 145 147 252 235 202 30 90 239 209 158 143 117 176 181 154 147 211 232 132 144 233 136 152 131 179 140 131 74 75 96 144 109 148 183 211 156 211 143 230 126 157 190 49 49 76 127 238 217 123 205 220 243 235 166 218 61 135 140 12 8 195 228 4 
117 75 88 159 164 134 250 49 197 164 164 99 159 251 224 122 123 193 154 250 227 248 233 169 182 93 166 159 107 146 61 138 128 145 108 199 140 186 199 73 248 49 188 244 108 42 212 245 252 107 234 235 160 185 200 236 207 48 85 93 40 0 190 244 5 
39 165 109 47 97 170 228 231 8 176 218 230 227 163 227 250 241 148 32 184 255 149 188 215 92 97 55 101 133 31 122 91 125 43 10 208 209 118 181 106 59 141 62 39 38 100 235 239 47 74 80 101 157 245 104 32 95 151 66 240 35 2 179 247 1 
135 205 25 23 157 194 240 198 186 24 99 174 216 143 63 84 164 85 126 186 233 110 32 69 156 40 15 41 50 62 29 37 70 25 107 83 84 179 90 137 134 94 100 98 108 45 119 170 17 231 237 154 107 166 180 113 123 141 104 227 20 0 192 255 25 
193 206 69 73 163 224 248 230 226 19 45 231 99 221 8 237 178 88 201 53 255 127 27 67 178 60 38 37 23 104 55 86 46 89 127 50 52 80 106 113 144 119 86 47 60 77 27 38 25 106 254 235 68 228 142 170 85 134 200 201 31 0 242 242 62 
14 22 128 63 131 187 226 255 96 140 142 137 172 64 196 170 88 171 242 171 66 60 204 163 77 115 99 85 43 34 53 138 133 148 92 121 94 134 186 95 75 45 68 120 162 45 71 101 130 58 69 139 79 255 237 26 173 63 201 176 12 11 225 238 135 
54 0 76 202 215 132 83 122 175 104 218 234 143 66 52 68 54 52 87 68 49 161 110 139 32 44 37 55 110 63 20 63 102 238 218 86 95 121 59 82 60 79 81 108 53 94 53 54 79 110 104 104 108 86 41 89 41 112 46 183 5 17 207 250 190 
134 20 0 181 226 180 43 108 119 50 128 87 172 69 135 155 36 57 54 150 102 81 129 130 125 80 90 35 78 57 60 42 115 147 118 41 59 27 22 124 132 172 49 24 107 112 24 162 91 139 149 97 72 113 58 60 79 26 69 89 12 68 86 217 200 
167 88 58 10 41 175 85 119 206 44 107 148 108 50 151 90 144 29 171 219 188 213 55 200 228 83 33 146 45 122 142 125 42 90 46 147 137 191 162 95 41 65 143 130 6 191 203 111 20 132 104 137 104 59 87 144 73 73 99 21 68 123 62 102 8 
161 86 171 145 3 17 140 39 77 117 43 53 114 129 95 50 52 126 64 53 30 62 157 107 44 44 81 38 103 12 20 69 133 148 116 185 224 94 85 72 147 60 64 113 105 121 103 215 48 162 57 148 146 127 74 143 55 146 41 75 97 46 149 174 105 
95 159 89 69 65 3 42 112 44 60 116 84 144 60 144 81 53 172 50 27 65 72 100 50 80 77 103 55 130 32 96 43 140 106 185 102 175 74 102 5 65 119 106 64 138 11 161 121 161 122 46 79 141 39 66 126 40 109 13 101 61 122 184 104 70 
211 190 58 139 89 132 53 34 8 38 135 27 182 185 155 187 174 26 132 152 36 10 139 144 254 71 123 68 57 115 15 147 70 180 76 131 44 139 36 89 82 197 50 192 27 68 116 155 126 142 150 31 59 139 116 77 93 44 62 43 98 42 107 66 0 
84 190 45 173 94 149 31 96 53 118 174 91 21 55 42 83 57 108 81 19 133 118 44 90 145 201 37 225 128 45 127 62 145 112 72 61 71 108 146 115 25 87 17 147 107 29 144 69 80 76 103 79 159 218 171 46 129 58 62 75 45 51 67 13 80 
3 209 71 136 129 129 24 120 93 121 129 82 56 110 10 82 100 148 107 48 145 83 75 186 81 230 40 92 187 105 54 124 60 129 63 38 92 160 108 161 53 58 45 57 71 38 82 193 190 148 161 126 88 158 130 72 92 9 41 29 49 99 125 24 21 
9 145 120 119 68 34 90 47 101 45 12 36 60 120 82 51 115 176 87 57 122 20 55 142 183 159 88 208 179 51 173 89 160 140 158 128 130 164 181 82 105 54 177 114 53 161 118 203 101 15 31 56 59 31 49 59 91 53 88 90 75 24 43 101 88 
0 215 121 146 121 123 78 105 59 124 164 72 119 138 56 57 188 123 174 105 41 135 160 40 196 155 96 62 145 115 182 114 73 150 105 147 79 43 73 159 111 43 200 26 114 115 152 193 147 29 81 35 100 57 54 41 82 19 51 102 16 70 123 7 81 
3 211 25 54 129 57 160 54 131 51 184 75 159 86 40 69 168 110 109 152 62 150 193 120 67 88 68 92 84 146 102 90 108 127 74 119 58 27 54 123 156 59 65 36 62 24 144 194 98 9 59 77 48 75 52 45 89 55 78 38 25 67 79 5 49 
12 116 142 172 72 86 155 68 157 127 113 149 83 207 124 52 154 129 153 157 123 190 144 77 127 68 137 103 190 152 111 134 141 99 110 53 108 26 77 156 179 112 131 34 83 45 66 34 4 61 97 54 80 53 113 68 76 34 127 98 75 37 5 69 5 
0 109 86 92 134 156 70 130 105 181 143 86 65 23 31 132 87 152 115 107 161 72 53 88 101 98 177 91 120 113 163 109 167 118 141 112 148 162 155 170 203 76 34 52 74 101 32 15 5 57 50 90 41 80 53 128 113 57 106 56 0 44 94 63 39 
8 83 86 108 94 137 89 151 94 142 56 110 51 115 91 145 151 177 99 97 129 79 167 124 155 133 133 107 66 116 211 134 117 87 127 95 165 213 135 68 107 161 54 68 48 80 53 39 27 72 88 13 99 47 34 85 91 72 35 24 47 12 28 24 87 
94 133 162 94 133 63 159 166 162 170 160 58 85 20 25 31 77 75 169 158 117 145 91 138 104 133 105 207 165 168 108 167 85 137 130 70 34 216 118 194 158 82 181 164 113 35 57 86 20 74 90 106 60 101 40 95 143 7 84 151 31 94 75 41 11 
137 70 126 164 94 150 133 139 59 55 153 103 139 53 127 65 118 114 93 123 154 70 137 41 129 75 161 140 197 208 114 164 204 189 60 166 109 207 114 89 131 147 239 153 47 156 55 103 12 69 100 145 90 38 132 135 41 43 101 60 78 4 86 101 78 
151 63 166 84 135 72 152 146 104 51 102 98 161 114 112 47 94 140 135 97 140 66 129 101 119 68 161 134 96 172 93 123 131 234 64 82 98 195 169 82 79 108 172 132 158 70 88 5 40 37 142 97 41 92 98 90 47 48 129 104 20 82 3 36 161 
30 98 148 124 56 121 73 98 75 116 45 74 135 130 126 114 152 81 150 120 92 138 150 155 91 49 150 105 72 77 130 236 107 123 130 49 63 165 191 127 99 189 74 94 138 114 65 30 99 73 91 59 51 66 152 42 18 157 96 47 89 151 80 118 43 
82 86 95 93 152 58 127 190 144 113 123 89 146 107 171 100 106 132 134 158 161 168 145 40 160 98 177 177 113 108 200 140 128 18 86 84 40 238 122 121 126 81 114 87 98 168 40 12 82 132 82 68 180 59 120 43 91 63 80 33 47 61 16 80 145 
7 44 117 77 119 73 113 194 156 197 111 115 120 147 158 141 85 131 150 164 140 111 186 72 85 87 133 94 55 130 208 168 119 20 177 75 14 243 130 153 185 50 173 74 177 168 53 48 14 92 135 76 164 46 141 33 134 83 94 67 11 39 9 54 104 
59 106 84 170 136 121 111 61 192 101 42 44 91 90 150 99 174 85 66 111 72 108 38 43 140 66 162 159 65 140 119 160 181 9 88 135 126 211 200 52 141 10 170 27 163 134 25 13 99 53 66 32 208 28 59 70 105 44 117 71 19 17 114 143 138 
161 122 111 101 60 55 176 123 108 196 79 83 78 72 113 93 147 108 90 166 131 167 95 135 92 23 205 71 119 77 173 56 71 116 171 67 76 222 104 158 127 42 104 7 7 227 223 122 19 160 36 47 189 94 119 145 73 41 67 130 107 121 125 140 81 
62 171 55 129 62 137 135 170 139 135 84 94 139 152 99 103 162 44 106 76 121 231 20 30 149 26 214 144 75 75 150 122 20 55 129 166 35 226 169 37 145 25 135 7 21 209 166 122 0 135 50 44 185 108 151 115 99 53 109 28 63 143 84 131 46 
156 11 106 30 127 83 140 124 127 32 119 174 163 106 114 145 124 89 61 122 44 121 8 36 109 98 177 205 83 119 28 18 8 9 77 118 31 238 192 41 136 18 12 38 21 177 24 8 187 166 18 38 149 126 90 83 87 54 125 134 126 85 106 53 11 
106 68 78 5 39 104 167 104 117 192 0 11 130 196 166 97 93 150 138 52 90 104 75 85 37 136 213 210 60 172 85 76 115 90 119 133 64 219 205 30 99 116 89 88 89 177 6 15 150 170 183 139 113 74 67 22 89 126 25 82 6 106 47 78 5 
82 49 25 57 162 135 171 187 113 75 93 17 126 65 41 119 136 115 130 35 87 148 174 200 154 174 109 228 28 162 175 188 190 192 193 110 54 28 218 55 188 190 199 183 176 149 25 40 156 70 112 67 13 52 22 36 73 131 71 7 41 41 79 106 34 
94 79 49 62 23 126 59 123 160 122 59 95 105 33 114 43 138 3 44 99 44 126 100 151 146 112 150 221 38 90 34 40 131 54 17 49 57 21 229 208 53 45 40 30 52 32 19 53 31 40 27 36 59 21 13 9 41 87 131 18 6 104 97 50 7 
59 42 10 22 66 4 125 171 140 84 213 152 163 131 182 146 31 112 6 80 105 37 50 100 124 135 67 183 89 140 190 189 157 210 210 162 44 6 236 214 39 57 52 57 53 21 20 49 23 27 35 64 98 91 146 31 8 56 81 83 45 55 32 4 84 
11 52 3 58 0 44 114 47 197 105 156 68 134 34 104 45 23 166 43 63 132 69 119 56 161 99 39 134 221 114 164 148 169 139 148 214 145 70 234 212 44 69 43 54 46 50 35 16 37 42 24 26 14 121 138 105 61 106 32 108 38 22 47 47 57 
0 13 51 15 1 24 54 71 14 116 6 136 35 124 14 109 122 166 148 16 50 134 92 108 58 75 53 201 215 138 173 192 180 176 187 155 164 94 229 231 36 57 140 145 101 37 21 23 17 22 26 11 11 37 36 20 120 16 93 60 12 49 28 62 109 
0 50 19 39 25 60 32 20 38 19 34 73 123 73 57 104 74 121 96 8 56 178 176 171 152 69 6 196 226 74 145 140 147 138 148 142 135 3 237 230 12 58 164 181 176 152 30 11 113 93 105 85 74 86 64 9 144 6 88 30 37 5 2 40 86 
17 35 13 17 47 17 69 59 72 146 139 154 71 36 150 145 167 44 15 62 119 123 142 177 165 133 22 210 210 30 117 172 196 193 186 181 127 0 246 211 60 138 175 163 162 152 78 0 93 197 179 187 170 153 134 113 35 77 28 56 1 60 15 63 97 
0 67 53 11 81 11 46 42 129 142 95 97 22 85 31 12 157 30 40 27 16 188 142 140 145 55 13 212 213 50 111 186 7 2 23 202 133 18 241 223 37 98 152 114 98 202 21 13 130 207 1 2 2 115 46 60 17 7 85 71 35 46 36 70 128 
15 122 36 14 108 13 69 16 44 115 139 131 43 134 52 0 156 18 17 52 43 169 28 24 95 76 21 203 221 40 128 208 4 53 9 191 126 7 240 219 33 84 121 18 3 205 22 15 132 222 4 9 50 59 25 0 44 8 96 60 63 22 8 66 63 
9 41 21 48 45 0 53 5 14 32 61 10 91 64 24 8 172 19 14 43 27 170 19 0 116 66 2 207 223 47 141 211 2 57 47 216 158 23 238 229 31 76 131 19 25 204 15 29 100 208 4 20 22 3 13 16 26 13 8 6 95 3 12 62 0 
6 111 43 30 66 15 80 45 5 96 36 27 11 3 9 2 176 21 22 48 29 173 16 15 117 61 12 197 217 47 145 205 6 48 16 208 165 23 230 222 31 71 136 38 19 197 22 22 81 206 3 21 7 12 11 28 12 37 36 6 127 4 35 68 6 
13 156 13 0 65 16 44 1 26 48 7 42 20 28 0 0 179 19 22 45 29 173 17 13 116 61 11 195 217 45 142 203 3 33 16 213 170 23 231 221 28 67 141 43 22 196 21 27 75 206 0 0 18 29 0 10 26 19 38 2 107 0 67 50 0 
5 167 96 83 4 14 37 30 13 51 6 26 14 6 0 8 179 17 40 31 28 174 17 10 114 62 11 192 214 41 136 200 0 14 4 207 165 21 229 219 24 61 147 31 24 193 24 16 59 210 2 9 0 88 15 36 2 39 6 14 19 35 92 73 7 
10 32 25 8 5 37 15 37 3 109 0 94 27 24 11 1 180 17 24 45 26 173 16 8 112 61 11 191 212 40 134 202 0 15 0 211 170 18 223 218 22 56 154 13 22 188 29 29 38 206 4 0 2 158 25 6 29 22 18 15 3 62 88 66 2 
0 22 22 5 26 8 38 21 9 120 2 75 65 0 0 1 188 20 28 47 24 173 15 7 110 60 11 192 215 44 136 207 3 18 4 220 177 16 215 219 23 54 159 10 15 184 34 42 27 201 2 0 4 100 20 38 9 2 47 0 43 77 75 57 0 
3 38 0 22 24 9 15 23 2 12 9 88 59 20 0 0 182 17 26 40 22 173 14 6 109 60 11 191 215 45 135 209 2 10 2 219 172 19 208 220 26 53 161 11 6 180 37 52 29 202 6 18 0 123 20 8 38 19 5 4 32 64 79 77 4 
2 36 14 1 7 25 5 82 43 5 0 94 40 0 8 10 179 13 22 50 21 173 15 4 109 62 11 188 212 43 132 208 0 10 0 216 172 27 204 221 29 54 161 9 3 176 40 39 29 199 6 4 32 49 13 36 20 55 22 20 34 73 68 77 1 
0 67 13 31 34 15 2 81 49 47 2 116 44 11 3 2 183 13 41 36 20 174 16 2 109 63 11 186 211 42 130 208 1 16 0 212 174 34 203 221 31 55 160 8 5 172 40 18 25 193 11 17 3 55 20 7 28 62 14 25 19 75 85 81 0 
9 47 14 1 15 49 24 48 0 5 0 112 35 4 3 5 185 10 17 40 28 181 10 7 109 66 9 210 213 42 130 213 0 24 4 214 173 43 196 224 28 54 161 43 40 158 48 35 15 193 63 87 61 95 22 30 32 68 31 52 18 57 83 73 6 
2 56 34 22 1 29 1 21 16 2 6 30 105 102 113 111 122 13 36 60 40 21 144 156 161 59 180 67 226 30 132 204 7 21 2 206 170 32 181 97 41 37 189 117 102 141 50 42 26 32 63 61 15 40 15 30 10 24 8 27 42 75 92 74 0 
1 136 15 0 11 7 17 0 8 14 2 4 0 1 21 8 23 33 23 47 66 20 143 51 103 6 182 90 225 34 138 205 0 0 5 214 165 40 197 88 164 58 154 43 25 38 27 26 18 4 28 7 2 26 6 13 30 23 2 32 43 81 65 77 0 
19 75 23 26 16 5 8 7 4 7 15 17 5 3 11 12 13 74 97 77 97 98 25 51 76 17 166 99 213 35 117 195 3 16 0 201 186 30 207 93 172 47 45 50 114 143 135 14 9 6 9 29 27 11 24 33 23 38 27 15 57 78 63 87 5 
0 157 52 2 8 13 18 0 10 13 0 0 19 12 0 32 88 119 164 189 194 205 73 27 17 42 179 104 212 115 122 213 0 0 6 185 147 51 194 149 87 136 49 38 209 174 178 170 147 155 149 30 12 3 15 2 6 35 1 12 54 68 89 81 1 
7 34 33 6 15 4 0 10 2 1 6 2 0 1 35 94 149 135 155 100 63 99 103 17 28 75 95 30 124 103 65 116 20 36 41 110 87 98 100 83 36 119 13 37 104 99 67 141 128 130 116 82 31 23 12 23 3 20 14 8 52 65 86 71 0 
9 17 13 10 2 10 0 7 1 4 15 22 3 7 26 75 78 90 100 105 84 48 26 41 49 36 23 46 50 50 63 49 65 71 53 62 49 57 51 40 51 64 52 34 32 30 31 31 32 13 22 8 0 0 13 4 8 0 7 12 55 71 91 72 5 
2 94 23 20 0 9 0 6 6 11 0 0 11 2 0 9 4 21 7 21 32 18 37 41 52 41 24 32 46 52 43 56 65 52 62 68 59 61 43 42 42 63 43 15 7 24 6 4 12 5 16 23 23 15 3 13 1 18 2 16 38 61 83 66 3 
0 104 18 23 0 8 0 0 0 0 12 10 2 4 5 1 1 11 3 14 29 19 29 37 48 45 23 26 46 51 45 62 64 64 67 62 58 60 43 42 32 56 41 32 31 14 17 8 9 16 20 21 17 3 14 5 1 11 1 16 47 65 88 67 5 
2 112 11 23 10 2 14 9 10 10 2 5 11 1 0 3 11 18 9 13 26 51 38 44 53 46 39 30 43 48 55 52 57 63 75 59 68 58 50 66 28 54 36 16 25 68 49 47 10 11 4 31 12 15 0 13 2 5 9 12 58 76 91 66 0 
3 105 13 20 0 9 21 6 3 2 8 13 4 6 0 43 6 1 23 29 24 42 25 41 58 37 45 37 54 59 52 53 55 61 64 56 56 59 57 48 37 58 50 28 14 55 42 20 14 40 17 17 0 19 18 5 13 6 2 39 55 77 96 71 2 
17 84 7 4 12 5 15 7 8 7 1 9 16 0 13 64 17 19 19 26 27 23 21 29 45 43 52 41 54 75 81 82 72 75 84 90 70 48 55 23 55 67 42 18 25 35 31 6 12 28 14 0 14 15 0 17 0 4 10 6 56 78 97 71 3 
0 25 25 4 1 27 20 14 5 9 4 15 5 7 15 20 15 24 11 17 27 20 34 40 42 51 45 53 49 64 77 99 94 93 78 56 76 99 95 41 76 61 34 16 53 49 13 10 6 3 12 8 3 8 19 32 0 32 43 21 75 97 94 63 0 
0 12 16 30 16 0 5 12 13 5 3 7 24 0 2 0 0 6 2 21 28 30 46 32 46 62 47 60 70 91 100 80 55 76 112 110 99 59 62 43 64 41 56 30 22 29 23 0 11 26 0 0 11 0 7 24 4 0 20 35 52 76 90 57 3 
16 28 3 30 14 3 3 11 5 10 5 14 20 11 11 12 0 8 0 21 23 24 43 26 44 57 58 52 41 75 90 103 97 92 96 74 81 70 55 64 60 50 47 46 19 25 16 0 4 6 3 7 0 3 31 6 23 16 39 31 53 78 88 52 9 
22 7 0 6 46 47 12 3 1 2 1 9 4 1 6 14 4 0 1 12 4 13 43 32 57 52 61 63 44 64 83 76 76 71 75 108 111 102 91 49 77 46 42 2 29 29 8 0 2 33 47 3 8 16 17 124 112 100 3 22 46 75 88 44 5 
26 0 0 25 65 65 13 41 38 51 50 49 37 40 25 25 13 1 4 20 49 50 55 48 70 64 56 62 74 23 70 76 74 91 89 76 74 71 78 69 49 57 41 39 63 23 0 27 33 18 54 79 95 78 78 16 57 92 34 1 42 75 95 58 0 
0 16 4 47 44 12 0 15 54 66 60 63 49 14 52 32 16 7 3 23 75 55 44 91 33 56 74 72 47 46 66 91 91 84 92 85 79 74 82 53 28 96 73 60 94 15 0 29 12 57 36 126 143 117 51 0 45 80 28 6 34 75 99 58 1 
4 11 0 59 57 0 35 7 58 119 115 100 85 45 27 7 28 9 0 16 115 76 56 77 57 52 70 64 80 55 74 74 79 94 95 89 82 73 75 57 119 123 132 144 130 9 17 33 31 36 24 103 103 147 89 2 19 80 45 0 0 36 96 53 3 
26 3 16 70 17 15 10 15 23 86 99 84 56 45 35 14 20 2 3 16 88 71 47 33 70 58 60 70 52 81 57 85 102 102 66 75 57 81 69 49 46 79 67 50 56 47 33 8 47 0 50 73 137 90 106 26 76 66 5 22 20 29 59 45 4 
32 38 0 42 37 33 28 4 14 60 109 112 54 15 22 21 15 12 15 48 56 27 71 42 47 73 55 60 80 75 69 46 83 74 72 83 91 66 58 59 59 56 47 35 29 22 22 3 22 13 37 48 101 132 112 0 50 54 11 42 15 22 29 92 5 
0 13 31 18 22 9 11 9 19 82 66 34 28 9 11 0 1 2 6 25 53 71 46 44 67 44 60 62 72 49 63 67 82 105 96 71 72 59 73 67 41 70 45 90 77 101 99 123 106 78 118 122 132 117 133 48 72 63 77 68 99 53 86 71 39 
127 98 22 98 95 117 125 81 76 135 127 132 147 165 139 160 118 162 151 135 114 96 135 140 135 149 134 116 119 124 110 131 126 159 171 179 188 187 161 145 181 157 176 82 178 88 162 158 70 134 96 43 81 168 95 137 157 90 152 168 23 104 143 24 96 
111 73 6 79 110 104 136 90 32 133 94 99 120 104 131 145 115 128 159 160 136 159 121 147 171 148 163 158 180 168 174 180 179 162 192 174 134 164 144 109 170 103 73 129 70 160 168 126 92 136 118 50 38 166 146 95 165 18 109 125 11 50 139 45 47 
54 5 40 125 131 32 114 29 113 108 82 153 48 4 26 153 19 88 180 120 16 34 3 74 86 111 72 122 166 118 75 187 183 153 188 133 97 125 23 99 151 153 57 169 186 83 155 199 44 22 174 30 100 178 73 27 41 101 153 172 103 85 60 15 97 
4 19 27 31 60 12 53 78 17 20 50 76 122 14 39 39 23 54 16 34 13 33 1 39 124 131 58 151 39 19 136 169 201 164 207 190 102 152 104 20 69 163 103 160 165 118 2 23 149 99 125 128 26 143 145 68 12 57 79 89 92 16 43 2 88 
0 34 10 26 29 33 25 40 2 0 25 46 38 71 53 27 45 26 45 79 30 19 56 92 81 74 88 144 46 53 179 147 197 190 170 140 79 161 87 46 43 65 30 35 81 51 10 57 59 43 63 48 63 64 69 27 44 14 47 28 13 32 10 73 83 
55 16 28 16 38 25 26 33 36 10 17 23 61 24 23 61 39 81 34 55 71 114 16 10 31 87 52 110 95 153 166 175 149 167 177 156 55 22 38 95 63 39 59 53 74 59 78 35 101 47 37 66 92 55 48 65 56 88 26 51 61 21 3 86 17 
22 48 93 97 78 69 49 52 37 118 85 87 61 77 96 36 93 81 75 103 77 135 86 62 69 49 34 52 90 48 38 137 171 83 31 44 128 82 53 36 43 78 52 96 97 31 24 55 48 102 124 63 65 68 63 58 82 44 43 75 50 70 22 81 8 
47 94 125 121 53 99 127 114 75 61 102 85 105 65 119 127 116 166 50 141 112 158 110 124 124 92 71 42 71 69 46 34 97 83 60 50 50 60 93 69 105 102 64 123 153 88 90 65 84 56 89 40 50 91 66 44 48 80 28 106 84 42 0 82 86 
71 56 46 72 32 56 53 50 69 33 57 40 46 48 75 46 65 100 93 43 63 53 88 42 68 60 131 139 138 148 143 152 136 156 156 157 159 153 113 100 92 69 99 77 70 135 144 86 55 63 61 113 53 42 54 83 62 69 76 56 89 86 23 67 78 
59 28 53 81 113 90 105 142 17 73 92 79 70 97 58 68 59 86 74 108 124 84 79 103 68 102 119 148 126 131 147 132 153 142 160 155 161 137 163 145 83 77 77 96 85 75 53 112 128 87 80 53 95 140 55 64 91 78 52 63 32 61 34 2 72 
8 43 58 55 55 47 48 113 47 57 98 76 83 59 83 50 51 132 74 52 80 94 68 80 65 117 132 143 153 139 116 148 158 139 140 156 151 161 147 163 137 98 81 92 78 74 62 72 106 69 75 84 70 108 73 103 66 95 89 95 78 58 11 17 86 
6 34 77 110 25 101 41 68 98 92 56 29 59 93 67 96 87 46 95 57 78 64 82 122 141 137 126 156 133 159 120 179 142 145 169 158 163 170 157 162 163 176 122 81 82 81 77 75 60 102 65 120 67 74 58 61 70 55 54 71 93 56 86 11 67 
0 77 47 47 77 48 43 50 74 43 82 66 87 48 49 66 58 63 76 81 54 89 82 124 136 114 133 145 156 142 157 147 174 169 153 173 159 155 154 171 152 162 147 119 59 91 104 88 84 78 79 92 101 77 87 90 89 94 66 97 77 75 115 44 70 
22 88 80 92 50 77 66 103 161 64 24 41 89 54 49 44 76 45 87 91 79 60 104 70 71 158 142 123 148 127 160 169 175 158 159 158 184 171 179 145 172 147 118 128 75 79 86 115 78 64 79 78 84 76 86 91 77 92 75 92 101 68 90 57 15 
2 106 51 61 73 68 89 70 56 94 71 111 62 131 138 134 89 39 53 92 51 95 77 103 84 60 65 131 98 142 152 177 175 175 182 175 148 170 140 89 71 102 89 107 85 63 83 99 84 156 123 106 66 87 71 130 161 162 138 128 121 102 97 58 27 
2 112 80 184 72 99 67 95 76 97 125 72 105 96 100 84 115 111 76 120 110 52 109 65 81 47 71 105 151 158 168 181 184 171 173 169 199 146 77 84 133 159 153 149 174 157 174 158 194 191 172 195 208 169 181 150 175 162 181 159 168 136 116 88 3 
99 138 87 73 109 100 92 63 112 47 107 97 81 108 113 102 86 101 115 63 104 70 112 84 61 83 61 125 158 192 205 210 212 211 207 213 193 213 156 123 159 171 181 181 182 189 198 190 184 206 198 203 194 204 200 176 147 170 156 159 155 156 136 114 114 
6 0 5 0 0 0 0 0 0 1 1 0 2 0 0 2 1 4 0 0 0 1 0 0 1 0 0 0 0 0 0 0 0 0 0 0 0 8 0 0 2 0 0 1 0 1 2 0 5 1 2 0 0 0 0 0 6 0 2 3 0 5 5 0 0 
